<?xml version="1.0" encoding="UTF-8"?>
<svg id="Logo" xmlns="http://www.w3.org/2000/svg" viewBox="0 0 872.49 265.37">
  <defs>
    <style>
      .cls-1 {
        fill: #c08a33;
      }

      .cls-2 {
        fill: #c96d68;
      }

      .cls-3 {
        fill: #d6a44a;
      }

      .cls-4 {
        opacity: .95;
      }

      .cls-5 {
        fill: #2f4f4f;
      }
    </style>
  </defs>
  <g class="cls-4">
    <path class="cls-1" d="M848.76,194.29c-4.15,1.88-9.99,3.02-14.32,3.02-26.44,0-53.1-102.93-53.5-104.74h0l-.05-10.32c0-.84-.36-1.64-.98-2.21-.62-.57-1.44-.86-2.28-.79l-4.46.36c-1.29.1-2.37,1.02-2.69,2.27l-2.67,10.68h-6.95l.34-10.8c.03-.86-.31-1.7-.92-2.31-.61-.61-1.46-.93-2.32-.89l-4.31.19c-1.33.06-2.48.96-2.85,2.24l-3.65,12.62c-.03.05-.06.09-.08.15l-48.19,124.6h10.39l4.16-10.86,11.13,2.3-3.28,8.56h9.04l8.63-22.96h52.1c2.24,1.36,7.44,6.52,12.01,11.38,7.09,7.54,16.68,13.32,27.24,13.32,8.29,0,15.83-2.26,21.1-4.9l-2.64-20.92ZM773.4,82.6l4.48-.34.05,10.3h-7.04l2.5-9.96ZM760.92,107.85l-8.62-1.78,2.26-6.15c2.78,2.34,4.84,5.12,6.36,7.93ZM753.67,81.83s.05-.08.1-.08l4.31-.19.12.11-.34,10.89h-7.29l3.11-10.74ZM750.25,111.4l11.13,2.3-5.32,13.89-11.13-2.3,5.32-13.89ZM726.59,204.47l-11.13-2.3,5.32-13.89,11.13,2.3-5.32,13.89ZM733.96,185.25l-11.13-2.3,5.32-13.89,11.13,2.3-5.32,13.89ZM741.33,166.03l-11.13-2.3,5.32-13.89,11.13,2.3-5.32,13.89ZM737.56,144.51l5.32-13.89,11.13,2.3-5.32,13.89-11.13-2.3ZM749.02,169.7l16.75-43.26,15.94,43.26h-32.69Z"/>
    <g>
      <path class="cls-5" d="M470.25,74.86l-17.88,18.93-35.92,38.1c-2.21,2.36-3.44,5.49-3.44,8.75l-.02,77.7h24.92v-72.48l50.18-53.33-17.85-17.66Z"/>
      <path class="cls-5" d="M531.34,218.33v-77.9c0-3.28-1.25-6.44-3.5-8.8l-36.94-36.49-17.27,18.36,32.78,32.29v72.54h24.92Z"/>
    </g>
    <g>
      <rect class="cls-2" x="456.77" y="164.71" width="12.78" height="12.78"/>
      <rect class="cls-2" x="474.79" y="164.71" width="12.78" height="12.78"/>
      <rect class="cls-2" x="456.77" y="182.21" width="12.78" height="12.78"/>
      <rect class="cls-2" x="474.79" y="182.21" width="12.78" height="12.78"/>
    </g>
    <path class="cls-5" d="M173.73,199.92c-11.27,10.72-30.67,20.33-51.55,20.33-37.14,0-64.67-24.02-64.67-64.49s27.53-64.86,64.67-64.86c32.34,0,50.63,18.11,51.37,47.49l-23.84,4.99c-.37-17.55-9.24-28.46-27.9-28.46-22.17,0-37.51,14.78-37.51,40.84s15.34,40.47,38.43,40.47c15.52,0,29.56-7.21,38.8-15.71l12.2,19.4Z"/>
    <g>
      <path class="cls-3" d="M28.4,114.17l23.05,22.5c1.73-8,4.89-15.44,9.19-22.1l-32.24-.39Z"/>
      <path class="cls-3" d="M51.03,138.95l-29.94,11.97,29.94,11.97c-.7-3.89-1.13-7.88-1.13-11.97s.43-8.08,1.13-11.98Z"/>
      <path class="cls-3" d="M78.85,95.7l-29.62-12.69,12.69,29.62c4.58-6.6,10.32-12.34,16.92-16.93Z"/>
    </g>
    <path class="cls-1" d="M357.59,56.18l-13.66-9.57c-.86-.6-.43-1.96.62-1.96h16.97c.46,0,.87-.3,1.02-.73l5.27-15.64c.33-.98,1.71-.98,2.04,0l5.27,15.64c.15.44.56.73,1.02.73h16.97c1.05,0,1.48,1.36.62,1.96l-13.66,9.57c-.39.27-.56.77-.4,1.23l5.23,15.53c.33.99-.79,1.82-1.64,1.23l-13.81-9.67c-.37-.26-.86-.26-1.24,0l-13.81,9.67c-.85.6-1.97-.24-1.64-1.23l4.83-16.75Z"/>
    <g>
      <polygon class="cls-2" points="594.67 144.58 634.55 184.48 652.6 166.51 612.71 126.61 594.67 144.58"/>
      <polygon class="cls-2" points="593.48 127.97 603.8 117.69 593.48 107.37 593.48 127.97"/>
      <polygon class="cls-2" points="653.5 183.4 643.47 193.4 653.5 203.44 653.5 183.4"/>
      <polygon class="cls-2" points="593.48 140.12 609.89 123.78 606.62 120.52 593.48 133.61 593.48 140.12"/>
      <polygon class="cls-2" points="653.5 171.25 637.38 187.31 640.64 190.57 653.5 177.76 653.5 171.25"/>
      <g>
        <polygon class="cls-2" points="563.99 92.79 563.99 109.93 563.99 114.77 563.99 118.77 563.99 123.38 563.99 127.37 563.99 139.03 563.99 183.74 589.48 183.74 589.48 139.03 589.48 127.37 589.48 123.38 589.48 118.77 589.48 114.77 589.48 109.93 589.48 92.79 563.99 92.79"/>
        <rect class="cls-2" x="563.99" y="187.73" width="25.49" height="4.61"/>
        <rect class="cls-2" x="563.99" y="196.33" width="25.49" height="22"/>
      </g>
      <g>
        <polygon class="cls-2" points="657.5 183.03 657.5 183.03 657.5 212.13 657.5 212.13 657.5 218.33 682.99 218.33 682.99 196.33 682.99 196.33 682.99 192.34 682.99 192.34 682.99 187.73 682.99 187.73 682.99 183.74 682.99 183.74 682.99 127.37 657.5 127.37 657.5 183.03"/>
        <rect class="cls-2" x="657.5" y="92.79" width="25.49" height="21.98"/>
        <rect class="cls-2" x="657.5" y="118.77" width="25.49" height="4.61"/>
      </g>
    </g>
    <g>
      <polygon class="cls-1" points="380.45 182.21 378.67 92.74 357.8 92.74 356.02 182.21 380.45 182.21"/>
      <polygon class="cls-1" points="355.94 186.21 355.3 218.39 381.17 218.39 380.53 186.21 355.94 186.21"/>
    </g>
    <path class="cls-2" d="M322.75,195.96c-2.57.93-7.22,2.28-12.37,2.28-1.47,0-2.98-.11-4.49-.37-10.41-1.82-21.63-12.87-25.86-17.03-.29-.28-.54-.53-.75-.73-1.38-1.34-2.75-2.7-4.11-4.05-1.11-1.1-2.26-2.22-3.24-3.19-.17-.17-.35-.34-.52-.5,0,0,0,0,0,0-1.25-1.22-2.13-2.09-2.13-2.09l-18.08-18.02-1.37-1.38c-7.52-5.42-22.02-16.48-17.31-27.57,5.44-12.8,21.08-6.81,22.83.34,1.81-6.56,18.36-11.76,22.77,1.73,3.93,12.04-13.9,22.68-21.23,26.89l15.21,15.16s1.86,1.83,4.03,3.95c17.77-4.59,30.76-18.79,30.76-38.01,0-30.86-25.31-40.84-50.07-40.84h-46.6v125.65h25.87v-45.27h3.92c15.71,11.64,36.4,47.12,64.49,47.12,8.13,0,15.52-2.22,20.69-4.8l-2.43-19.27Z"/>
  </g>
</svg>